<svg xmlns="http://www.w3.org/2000/svg" viewBox="0 0 48 48" id="twitter"><path fill="#03A9F4" d="M42 37a5 5 0 0 1-5 5H11a5 5 0 0 1-5-5V11a5 5 0 0 1 5-5h26a5 5 0 0 1 5 5v26z"></path><path fill="#FFF" d="M36 17.12c-.882.391-1.999.758-3 .88 1.018-.604 2.633-1.862 3-3-.951.559-2.671 1.156-3.793 1.372-.896-.95-2.174-1.372-3.59-1.372C25.897 15 24 17.305 24 20v2c-4 0-7.9-3.047-10.327-6a4.813 4.813 0 0 0-.667 2.457c0 1.819 1.671 3.665 2.994 4.543-.807-.025-2.335-.641-3-1v.057c0 2.367 1.661 3.974 3.912 4.422-.411.113-.912.521-2.84.521.626 1.935 3.773 2.958 5.928 3-1.686 1.307-4.692 2-7 2-.399 0-.615.022-1-.023C14.178 33.357 17.22 34 20 34c9.057 0 14-6.918 14-13.37 0-.212-.007-.922-.018-1.13.968-.682 1.36-1.396 2.018-2.38"></path></svg>